<?xml version="1.0" encoding="utf-8"?>
<!-- Generator: Adobe Illustrator 21.1.0, SVG Export Plug-In . SVG Version: 6.00 Build 0)  -->
<svg version="1.1" id="Capa_1" xmlns="http://www.w3.org/2000/svg" xmlns:xlink="http://www.w3.org/1999/xlink" x="0px" y="0px"
	 viewBox="0 0 388.3 388.3" style="enable-background:new 0 0 388.3 388.3;" xml:space="preserve">
<style type="text/css">
	.st0{fill:#009CCF;}
</style>
<rect x="144.9" y="57.7" transform="matrix(0.9144 0.4047 -0.4047 0.9144 50.4228 -96.8892)" class="st0" width="218.8" height="26.2"/>
<rect x="203.2" y="87.2" transform="matrix(0.9144 0.4047 -0.4047 0.9144 64.615 -104.9634)" class="st0" width="154.7" height="26.2"/>
<rect x="220.4" y="58.9" transform="matrix(0.9144 0.4047 -0.4047 0.9144 55.3158 -114.2082)" class="st0" width="154.7" height="29.7"/>
<rect x="274.5" y="113.2" transform="matrix(0.9144 0.4047 -0.4047 0.9144 78.2879 -114.256)" class="st0" width="69.7" height="29.7"/>
<rect x="299.6" y="57.1" transform="matrix(0.9144 0.4047 -0.4047 0.9144 58.0149 -130.3978)" class="st0" width="75.6" height="29.7"/>
<g>
	<g id="Layer_8_45_">
		<path d="M388.2,55.2l-272-54.1L115.5,1L26.4,1.1L0,1.1v386.2h388.3V64.6L388.2,55.2z M319.3,144.4
			c-25.5-22.9-105.8-77.7-159.5-113.7L366,72.8C361.9,90.5,350,126.1,319.3,144.4z M321.9,166.1c21.5-10.3,36.1-26.5,46-43.1v243.9
			H20.4V21.5l4.5,0l84.4,0.1c67.8,44.7,184.6,123.9,200.6,142.1l5.1,5.8L321.9,166.1z"/>
	</g>
</g>
</svg>
